<svg xmlns="http://www.w3.org/2000/svg" width="24" height="24" viewBox="0 0 24 24" fill="currentColor"><path d="M10.704 1.973c-.09.17-.204.431-.204.727 0 .81.627 1.55 1.5 1.55s1.5-.74 1.5-1.55c0-.296-.115-.558-.204-.727C12.982 1.376 12.472.911 12 .44c-.471.472-.982.937-1.296 1.534ZM12 5.5a1 1 0 0 1 1 1V9h4.066c.886 0 1.65 0 2.262.082.655.088 1.284.287 1.793.797.51.51.709 1.138.797 1.793.082.612.082 1.376.082 2.262v4.128c0 .654 0 1.241-.064 1.717-.07.52-.232 1.052-.668 1.489-.437.436-.97.598-1.489.668-.476.064-1.063.064-1.717.064H5.938c-.654 0-1.241 0-1.717-.064-.52-.07-1.052-.232-1.489-.668-.436-.437-.598-.97-.668-1.489C2 19.303 2 18.716 2 18.062v-4.128c0-.886 0-1.65.082-2.262.088-.655.287-1.284.797-1.793.51-.51 1.138-.709 1.793-.797C5.284 9 6.048 9 6.934 9H11V6.5a1 1 0 0 1 1-1m8 8.706V14c0-.971-.002-1.599-.064-2.061-.059-.434-.153-.57-.229-.646s-.212-.17-.646-.229C18.6 11.002 17.971 11 17 11H7c-.971 0-1.599.002-2.061.064-.434.059-.57.153-.646.229s-.17.212-.229.646C4.002 12.4 4 13.029 4 14v.206l.072.062c.608.52 1.515.515 2.122-.016a3.61 3.61 0 0 1 4.75-.005 1.6 1.6 0 0 0 2.112 0 3.61 3.61 0 0 1 4.75.005 1.624 1.624 0 0 0 2.122.016zm-16 2.27V18c0 .735.002 1.186.046 1.513.039.286.093.334.1.34v.001c.007.007.055.061.341.1.327.044.778.046 1.513.046h12c.735 0 1.186-.002 1.513-.046.286-.039.334-.093.34-.1h.001c.007-.007.061-.055.1-.341.044-.327.046-.778.046-1.513v-1.523a3.63 3.63 0 0 1-3.51-.72 1.61 1.61 0 0 0-2.117-.004 3.6 3.6 0 0 1-4.746 0 1.61 1.61 0 0 0-2.116.004 3.63 3.63 0 0 1-3.511.72Z"/></svg>