<svg xmlns="http://www.w3.org/2000/svg" width="24" height="24" viewBox="0 0 24 24" fill="currentColor"><path d="M8.11 6.693a1 1 0 0 1 0 1.415 5.48 5.48 0 0 0-1.61 3.889 5.48 5.48 0 0 0 1.61 3.889A1 1 0 1 1 6.698 17.3 7.48 7.48 0 0 1 4.5 11.997c0-2.071.84-3.948 2.197-5.304a1 1 0 0 1 1.414 0Zm7.78 0a1 1 0 0 1 1.413 0 7.48 7.48 0 0 1 2.197 5.304 7.48 7.48 0 0 1-2.197 5.303 1 1 0 0 1-1.414-1.414 5.48 5.48 0 0 0 1.611-3.89 5.48 5.48 0 0 0-1.61-3.889 1 1 0 0 1 0-1.414M12 14a2 2 0 1 0 0-4 2 2 0 0 0 0 4"/><path d="M.5 12C.5 5.649 5.649.5 12 .5S23.5 5.649 23.5 12 18.351 23.5 12 23.5c-1.922 0-3.736-.472-5.33-1.308a.63.63 0 0 0-.447-.069l-3.4.882a1.5 1.5 0 0 1-1.828-1.829l.882-3.4a.63.63 0 0 0-.07-.445A11.45 11.45 0 0 1 .5 12M12 2.5A9.5 9.5 0 0 0 2.5 12c0 1.59.39 3.088 1.08 4.402.287.55.404 1.216.233 1.877l-.668 2.576 2.577-.668a2.63 2.63 0 0 1 1.875.234A9.45 9.45 0 0 0 12 21.5a9.5 9.5 0 0 0 0-19"/></svg>