<svg xmlns="http://www.w3.org/2000/svg" viewBox="0 0 24 24" width="24" height="24" fill="currentColor" class="x14rh7hd x1lliihq x1tzjh5l x1k90msu x2h7rmj x1qfuztq" style="--x-color:var(--secondary-icon)"><path d="M8 8a1 1 0 0 1 1 1v2h2a1 1 0 1 1 0 2H9v2a1 1 0 1 1-2 0v-2H5a1 1 0 1 1 0-2h2V9a1 1 0 0 1 1-1m8 2a1.5 1.5 0 1 0 3 0 1.5 1.5 0 0 0-3 0m-2 4a1.5 1.5 0 1 0 3 0 1.5 1.5 0 0 0-3 0" fill="#65686c"/><path d="M.5 11a7 7 0 0 1 7-7h9a7 7 0 0 1 7 7v2a7 7 0 0 1-7 7h-9a7 7 0 0 1-7-7zm7-5a5 5 0 0 0-5 5v2a5 5 0 0 0 5 5h9a5 5 0 0 0 5-5v-2a5 5 0 0 0-5-5z" fill="#65686c"/></svg>