<svg xmlns="http://www.w3.org/2000/svg" width="24" height="24" viewBox="0 0 24 24" fill="currentColor"><path d="M11.37 2.143a2.534 2.534 0 0 1 4.746.503 2.516 2.516 0 0 1 3.324 2.599 2.495 2.495 0 0 1 2.237 3.239c-.522 1.66-1.402 4.41-2.194 6.635-.328.918-.703 1.948-1.081 2.972-1.44 3.9-5.62 6.024-9.623 4.951a9.86 9.86 0 0 1-7.273-8.672l-.42-4.816A1.91 1.91 0 0 1 2.25 7.625a2.826 2.826 0 0 1 3.856 1.986l.01.042c.22-.73.44-1.485.623-2.173.333-1.243.646-2.579.872-3.593a2.61 2.61 0 0 1 3.76-1.744ZM10.248 6.34c.193-.77.34-1.386.45-1.867a.514.514 0 0 0-.386-.612.61.61 0 0 0-.749.463 94 94 0 0 1-.892 3.674 96 96 0 0 1-1.138 3.84l-.233.728c.781.099 1.832.314 2.931.781a1 1 0 1 1-.783 1.84 9.1 9.1 0 0 0-3.46-.704 1 1 0 0 1-1.015-.78l-.819-3.654a.826.826 0 0 0-1.068-.603l.413 4.751a7.86 7.86 0 0 0 5.799 6.914c3.018.808 6.151-.795 7.228-3.712.377-1.02.75-2.043 1.073-2.951.78-2.187 1.65-4.908 2.17-6.563a.495.495 0 0 0-.349-.627.52.52 0 0 0-.622.345l-.11.33c-.379 1.185-.858 2.535-1.693 4.733a1 1 0 0 1-1.873-.7c.898-2.441 1.314-3.603 1.666-4.656.23-.719.422-1.374.642-2.146a.515.515 0 0 0-.988-.29c-.222.72-.499 1.608-.748 2.394-.268.846-.668 2-.998 2.936a236 236 0 0 1-.595 1.67 1 1 0 0 1-1.911-.58l.151-.61.365-1.458c.284-1.13.622-2.466.836-3.265.208-.777.445-1.794.63-2.619a.52.52 0 0 0-.378-.614.53.53 0 0 0-.655.379c-.269 1.035-.633 2.45-.951 3.719a92 92 0 0 1-1.155 4.178 1 1 0 0 1-1.91-.593 91 91 0 0 0 1.125-4.071m12.574 6.714a1 1 0 0 1 .624 1.27c-.135.395-.252.687-.364.97l-.013.03c-.115.29-.23.58-.374 1a1 1 0 1 1-1.892-.648c.16-.467.29-.794.408-1.091l.01-.024c.113-.284.213-.536.332-.884a1 1 0 0 1 1.27-.623Z"/><path d="M6.228 3.21a1 1 0 0 0-1.955-.42 38 38 0 0 1-.487 1.947 1 1 0 1 0 1.929.527c.174-.64.363-1.358.513-2.053Z"/></svg>