<svg xmlns="http://www.w3.org/2000/svg" width="24" height="24" viewBox="0 0 24 24" fill="currentColor"><path d="M15.029 23h.042c1.354 0 2.47 0 3.354-.12.928-.124 1.747-.396 2.403-1.052.657-.656.928-1.476 1.053-2.403.12-.884.12-2 .119-3.355V9.766a1 1 0 0 0 1.125-1.647l-5.552-4.442c-1.156-.925-2.094-1.675-2.92-2.186C13.792.958 12.957.622 12 .622s-1.791.336-2.652.869c-.827.51-1.765 1.261-2.92 2.186L5 4.82V3a1 1 0 0 0-2 0v3.419l-2.125 1.7A1 1 0 0 0 2 9.766v6.304c0 1.354 0 2.47.119 3.355.125.927.396 1.747 1.053 2.403s1.475.928 2.403 1.053c.884.119 2 .119 3.354.119zm-4.63-19.81c.689-.425 1.155-.569 1.601-.569.447 0 .912.144 1.6.57.711.44 1.555 1.112 2.773 2.086L20 8.18V16c0 1.442-.002 2.423-.1 3.158-.096.706-.263 1.033-.486 1.256-.222.222-.55.39-1.255.485-.551.074-1.24.093-2.159.099V14.5a2.5 2.5 0 0 0-2.5-2.5h-3A2.5 2.5 0 0 0 8 14.5v6.498c-.918-.006-1.608-.025-2.159-.1-.706-.094-1.033-.262-1.255-.484-.223-.223-.39-.55-.485-1.256C4.002 18.423 4 17.442 4 16V8.18l3.627-2.902C8.845 4.304 9.69 3.631 10.4 3.191ZM14 21h-4v-6.5a.5.5 0 0 1 .5-.5h3a.5.5 0 0 1 .5.5z"/></svg>