<?xml version="1.0" encoding="UTF-8"?>
<svg xmlns:xlink="http://www.w3.org/1999/xlink" xmlns="http://www.w3.org/2000/svg" width="20" height="20" viewBox="0 0 24 24" fill="currentColor">
   <path d="M12 5.499a4 4 0 1 0 0 8 4 4 0 0 0 0-8Zm-2 4a2 2 0 1 1 4 0 2 2 0 0 1-4 0Z"/>
   <path d="M12 .5a9 9 0 0 0-9 9c0 2.64 1.351 5.422 2.859 7.736 1.529 2.347 3.325 4.37 4.418 5.522a2.365 2.365 0 0 0 3.446 0c1.093-1.152 2.89-3.175 4.418-5.522C19.65 14.922 21 12.14 21 9.5a9 9 0 0 0-9-9Zm-7 9a7 7 0 0 1 14 0c0 2.036-1.077 4.408-2.535 6.645-1.435 2.204-3.14 4.128-4.192 5.236a.365.365 0 0 1-.546 0c-1.051-1.108-2.757-3.032-4.192-5.236C6.077 13.908 5 11.535 5 9.5Z"/>
</svg>
