<svg xmlns:xlink="http://www.w3.org/1999/xlink" xmlns="http://www.w3.org/2000/svg" viewBox="0 0 16 16" width="20" height="20" fill="currentColor" aria-hidden="true" class="x14rh7hd x1lliihq x1tzjh5l x1k90msu x2h7rmj x1qfuztq" style="--x-color:var(--primary-icon)"><path fill-rule="evenodd" d="M.5 8a7.5 7.5 0 1 1 4.006 6.638.341.341 0 0 0-.236-.041l-2.193.534A1 1 0 0 1 .87 13.923l.534-2.193a.341.341 0 0 0-.04-.236A7.47 7.47 0 0 1 .5 8zm11.389-.907a.56.56 0 0 0-.79-.78L9.25 7.75 7.294 6.327a1 1 0 0 0-1.386.205L4.111 8.906a.56.56 0 0 0 .791.781L6.75 8.25l1.957 1.423a1 1 0 0 0 1.385-.205l1.797-2.375z" clip-rule="evenodd" fill="#080809"></path></svg>