<?xml version="1.0" encoding="UTF-8"?>
<svg xmlns:xlink="http://www.w3.org/1999/xlink" xmlns="http://www.w3.org/2000/svg" width="24" height="24" viewBox="0 0 24 24" fill="currentColor">
   <path d="M7 .5a1 1 0 0 0-1 1V4a2 2 0 0 0-2 2v1h-.5A2.5 2.5 0 0 0 1 9.5v11A2.5 2.5 0 0 0 3.5 23h17a2.5 2.5 0 0 0 2.5-2.5V6.015a2.5 2.5 0 0 0-1.572-2.32l-7-2.8A2.5 2.5 0 0 0 11 3.214V7h-1V6a2 2 0 0 0-2-2V1.5a1 1 0 0 0-1-1ZM3.5 9h2.55c-.033.162-.05.329-.05.5V21H3.5a.5.5 0 0 1-.5-.5v-11a.5.5 0 0 1 .5-.5Zm10.186-6.249 7 2.8a.5.5 0 0 1 .314.464V20.5a.5.5 0 0 1-.5.5H18V9.5A2.5 2.5 0 0 0 15.5 7H13V3.215a.5.5 0 0 1 .686-.464ZM10 12a1 1 0 0 1 1-1h2a1 1 0 1 1 0 2h-2a1 1 0 0 1-1-1Zm0 3.5a1 1 0 0 1 1-1h2a1 1 0 1 1 0 2h-2a1 1 0 0 1-1-1Z"/>
</svg>
