<svg xmlns="http://www.w3.org/2000/svg" viewBox="0 0 20 20" width="20" height="20" fill="currentColor" aria-hidden="true" class="x14rh7hd x1lliihq x1tzjh5l x1k90msu x2h7rmj x1qfuztq" style="--x-color:var(--primary-icon)"><path d="M7.5 10a2.5 2.5 0 1 1 5 0 2.5 2.5 0 0 1-5 0"/><path d="M17.773 8.983a1.75 1.75 0 0 0 0 2.034v-.001l.949 1.328c.302.423.31.988.023 1.42l-1.387 2.081a1.25 1.25 0 0 1-1.195.547l-1.235-.154a1.75 1.75 0 0 0-1.856 1.122l-.498 1.328a1.25 1.25 0 0 1-1.17.811H8.597a1.25 1.25 0 0 1-1.17-.811l-.476-1.269a1.75 1.75 0 0 0-1.91-1.115l-1.165.182a1.25 1.25 0 0 1-1.246-.561L1.238 13.75a1.25 1.25 0 0 1 .036-1.4l.934-1.307a1.75 1.75 0 0 0-.018-2.059l-.904-1.22a1.25 1.25 0 0 1-.06-1.399l1.398-2.272a1.25 1.25 0 0 1 1.258-.58l1.16.181A1.75 1.75 0 0 0 6.95 2.579l.476-1.269a1.25 1.25 0 0 1 1.17-.811h2.807c.52 0 .987.323 1.17.811l.498 1.328a1.75 1.75 0 0 0 1.856 1.122l1.235-.154a1.25 1.25 0 0 1 1.195.547l1.387 2.081a1.25 1.25 0 0 1-.023 1.42l-.95 1.329zM10 6a4 4 0 1 0 0 8 4 4 0 0 0 0-8"/></svg>