<?xml version="1.0" encoding="UTF-8"?>
<svg xmlns:xlink="http://www.w3.org/1999/xlink" xmlns="http://www.w3.org/2000/svg" width="24" height="24" viewBox="0 0 24 24" fill="currentColor">
   <path d="M7.43 3h9.14c1.355 0 2.471 0 3.355.119.928.124 1.747.396 2.403 1.053.657.656.928 1.475 1.053 2.403.12.884.119 2 .119 3.354v4.141c0 1.355 0 2.471-.119 3.355-.125.928-.396 1.747-1.053 2.403-.656.657-1.475.928-2.403 1.053-.884.12-2 .119-3.354.119H7.429c-1.354 0-2.47 0-3.354-.119-.928-.125-1.747-.396-2.403-1.053-.657-.656-.929-1.475-1.053-2.403-.12-.884-.119-2-.119-3.354V9.929c0-1.354 0-2.47.119-3.354.124-.928.396-1.747 1.053-2.403.656-.657 1.475-.928 2.403-1.053.884-.12 2-.119 3.354-.119ZM21.4 6.841c-.096-.706-.263-1.033-.486-1.255-.222-.223-.55-.39-1.255-.485-.584-.079-1.324-.096-2.328-.1L19.731 8h1.751a11.546 11.546 0 0 0-.082-1.16ZM12.08 5l2.4 3h2.689l-2.4-3h-2.688Z"/>
</svg>
