<svg xmlns="http://www.w3.org/2000/svg" fill="none" viewBox="0 0 16 16"><g clip-path="url(#a)"><path d="M15.996 8a7.999 7.999 0 1 1-7.998-8 8 8 0 0 1 7.998 8" fill="url(#b)"/><path d="M15.997 8A7.999 7.999 0 1 1 8 0a8 8 0 0 1 7.998 8" fill="url(#c)"/><path d="M8 5.908c-.353-.884-1.194-1.507-2.175-1.507-1.433 0-2.426 1.328-2.426 2.68 0 2.272 2.394 4.01 4.082 5.159a.91.91 0 0 0 1.037 0c1.688-1.15 4.082-2.887 4.082-5.16 0-1.351-.993-2.679-2.426-2.679-.98 0-1.822.623-2.174 1.507" fill="#fff"/></g><defs><radialGradient id="c" cx="0" cy="0" r="1" gradientUnits="userSpaceOnUse" gradientTransform="rotate(90 0 8)scale(7.9992 7.99863)"><stop offset=".564" stop-color="#e11731" stop-opacity="0"/><stop offset="1" stop-color="#e11731" stop-opacity=".1"/></radialGradient><linearGradient id="b" x1="2.399" y1="2.401" x2="13.598" y2="13.599" gradientUnits="userSpaceOnUse"><stop stop-color="#ff74ae"/><stop offset=".5" stop-color="#fa2e3e"/><stop offset="1" stop-color="#ff5758"/></linearGradient><clipPath id="a"><path fill="#fff" d="M-.001 0h16v16h-16z"/></clipPath></defs></svg>