<svg xmlns="http://www.w3.org/2000/svg" fill="none" viewBox="0 0 16 16"><path d="M16 8A8 8 0 1 1 .001 8 8 8 0 0 1 16 8" fill="url(#a)"/><path d="M16 8A8 8 0 1 1 .001 8 8 8 0 0 1 16 8" fill="url(#b)"/><path d="M16 8A8 8 0 1 1 .001 8 8 8 0 0 1 16 8" fill="url(#c)" fill-opacity=".5"/><path d="M7.301 3.866A.697.697 0 0 1 8 3.17c.674 0 1.22.546 1.22 1.22v1.746a.1.1 0 0 0 .102.102h1.795c.992 0 1.723.927 1.492 1.892l-.458 1.904a2.3 2.3 0 0 1-2.237 1.764H6.918a.575.575 0 0 1-.575-.575V7.738c0-.416.097-.827.284-1.2l.285-.571a3.7 3.7 0 0 0 .39-1.651zM4.367 7a.767.767 0 0 0-.767.767v3.26a.767.767 0 0 0 .767.767h.767a.384.384 0 0 0 .384-.384V7.383A.384.384 0 0 0 5.134 7z" fill="#fff"/><defs><radialGradient id="b" cx="0" cy="0" r="1" gradientUnits="userSpaceOnUse" gradientTransform="rotate(90 0 8)scale(7.99958)"><stop offset=".562" stop-color="#0866ff" stop-opacity="0"/><stop offset="1" stop-color="#0866ff" stop-opacity=".1"/></radialGradient><radialGradient id="c" cx="0" cy="0" r="1" gradientUnits="userSpaceOnUse" gradientTransform="rotate(45 -4.526 10.924)scale(10.1818)"><stop offset=".314" stop-color="#02adfc"/><stop offset="1" stop-color="#02adfc" stop-opacity="0"/></radialGradient><linearGradient id="a" x1="2.399" y1="2.4" x2="13.598" y2="13.599" gradientUnits="userSpaceOnUse"><stop stop-color="#02adfc"/><stop offset=".5" stop-color="#0866ff"/><stop offset="1" stop-color="#2b7eff"/></linearGradient></defs></svg>