<?xml version="1.0" encoding="UTF-8"?>
<svg xmlns:xlink="http://www.w3.org/1999/xlink" xmlns="http://www.w3.org/2000/svg" width="24" height="24" viewBox="0 0 24 24" fill="currentColor">
   <path d="M7.43 3c-1.355 0-2.471 0-3.355.119-.928.124-1.747.396-2.403 1.053-.657.656-.929 1.475-1.053 2.403-.12.884-.119 2-.119 3.354v4.142c0 1.354 0 2.47.119 3.354.124.928.396 1.747 1.053 2.403.656.657 1.475.928 2.403 1.053.884.12 2 .119 3.354.119h9.141c1.355 0 2.471 0 3.355-.119.928-.125 1.747-.396 2.403-1.053.657-.656.928-1.475 1.053-2.403.12-.884.119-2 .119-3.354V9.929c0-1.354 0-2.47-.119-3.354-.125-.928-.396-1.747-1.053-2.403-.656-.657-1.475-.928-2.403-1.053-.884-.12-2-.119-3.354-.119H7.429Zm2.089 2 3.25 4.062A2.5 2.5 0 0 0 14.72 10h6.78v4c0 1.443-.002 2.424-.1 3.159-.096.706-.263 1.033-.486 1.255-.222.223-.55.39-1.255.485-.735.099-1.716.101-3.159.101h-9c-1.442 0-2.424-.002-3.159-.1-.706-.096-1.033-.263-1.255-.486-.223-.222-.39-.55-.485-1.255C2.502 16.424 2.5 15.443 2.5 14v-4c0-1.442.002-2.424.1-3.159.096-.706.263-1.033.486-1.255.222-.223.55-.39 1.255-.485C5.076 5.002 6.058 5 7.5 5h2.019Zm11.963 3H19.73l-2.399-2.999c1.004.004 1.743.021 2.328.1.706.095 1.033.262 1.255.485.223.222.39.55.485 1.255.044.33.07.71.083 1.159ZM12.08 5h1.73a2 2 0 0 1 1.56.75L17.169 8h-2.448a.5.5 0 0 1-.39-.188L12.08 5Z"/>
</svg>
