<svg xmlns:xlink="http://www.w3.org/1999/xlink" xmlns="http://www.w3.org/2000/svg" viewBox="0 0 24 24" width="24"
    height="24" fill="currentColor" class="x14rh7hd x1lliihq x1tzjh5l x1k90msu x2h7rmj x1qfuztq" style="color:#65686C">
    <path d="M10.996 12.132A1 1 0 0 0 9.5 13v4a1 1 0 0 0 1.496.868l3.5-2a1 1 0 0 0 0-1.736l-3.5-2z">
    </path>
    <path
        d="M12.075 1h-.15C9.632 1 7.81 1 6.38 1.192c-1.472.198-2.674.616-3.623 1.565-.949.95-1.367 2.15-1.565 3.623C1 7.81 1 9.632 1 11.925v.15c0 2.293 0 4.116.192 5.545.198 1.472.616 2.674 1.565 3.623.95.949 2.15 1.367 3.623 1.565C7.81 23 9.632 23 11.925 23h.15c2.293 0 4.116 0 5.545-.192 1.472-.198 2.674-.616 3.623-1.565.949-.95 1.367-2.15 1.565-3.623.192-1.43.192-3.252.192-5.545v-.15c0-2.293 0-4.116-.192-5.545-.198-1.472-.616-2.674-1.565-3.623-.95-.949-2.15-1.367-3.623-1.565C16.19 1 14.368 1 12.075 1zM4.172 4.172c.515-.516 1.224-.83 2.475-.998l.183-.023L8.113 7H3.132c.013-.121.027-.239.042-.353.168-1.25.482-1.96.998-2.475zM10.22 7 8.895 3.023C9.778 3 10.801 3 12 3c.642 0 1.234 0 1.78.004L15.114 7H10.22zm6.253 2h4.507c.02.86.02 1.848.02 3 0 2.385-.002 4.074-.174 5.353-.168 1.25-.482 1.96-.998 2.475-.515.516-1.224.83-2.475.998-1.28.172-2.968.174-5.353.174s-4.074-.002-5.353-.174c-1.25-.168-1.96-.482-2.475-.998-.516-.515-.83-1.224-.998-2.475C3.002 16.073 3 14.385 3 12c0-1.152 0-2.14.02-3h13.454zm.747-2-1.316-3.949c.537.026 1.016.065 1.448.123 1.25.168 1.96.482 2.475.998.516.515.83 1.224.998 2.475.015.114.03.232.042.353H17.22z">
    </path>
</svg>